<svg width="21" height="21" viewBox="0 0 21 21" fill="none" xmlns="http://www.w3.org/2000/svg">
<path d="M9.96996 8.78122C10.0396 8.85095 10.1223 8.90627 10.2134 8.94401C10.3044 8.98175 10.402 9.00118 10.5006 9.00118C10.5992 9.00118 10.6967 8.98175 10.7878 8.94401C10.8788 8.90627 10.9616 8.85095 11.0312 8.78122L14.7812 5.03122C14.8509 4.96156 14.9063 4.87884 14.944 4.7878C14.9818 4.69675 15.0012 4.59915 15.0012 4.50059C15.0012 4.40203 14.9818 4.30443 14.944 4.21339C14.9063 4.12234 14.8509 4.03962 14.7812 3.96997L11.0312 0.219965C10.9616 0.150233 10.8788 0.0949133 10.7878 0.0571701C10.6967 0.0194269 10.5992 0 10.5006 0C10.402 0 10.3044 0.0194269 10.2134 0.0571701C10.1223 0.0949133 10.0396 0.150233 9.96996 0.219965L6.21996 3.96997C6.15023 4.03962 6.09491 4.12234 6.05717 4.21339C6.01943 4.30443 6 4.40203 6 4.50059C6 4.59915 6.01943 4.69675 6.05717 4.7878C6.09491 4.87884 6.15023 4.96156 6.21996 5.03122L9.96996 8.78122ZM10.5006 1.8109L13.1903 4.50059L10.5006 7.19028L7.8109 4.50059L10.5006 1.8109ZM11.0312 12.2172C10.9616 12.1474 10.8788 12.0921 10.7878 12.0544C10.6967 12.0166 10.5992 11.9972 10.5006 11.9972C10.402 11.9972 10.3044 12.0166 10.2134 12.0544C10.1223 12.0921 10.0396 12.1474 9.96996 12.2172L6.21996 15.9672C6.15023 16.0368 6.09491 16.1195 6.05717 16.2106C6.01943 16.3016 6 16.3992 6 16.4978C6 16.5963 6.01943 16.6939 6.05717 16.785C6.09491 16.876 6.15023 16.9587 6.21996 17.0284L9.96996 20.7784C10.0396 20.8481 10.1223 20.9035 10.2134 20.9412C10.3044 20.9789 10.402 20.9984 10.5006 20.9984C10.5992 20.9984 10.6967 20.9789 10.7878 20.9412C10.8788 20.9035 10.9616 20.8481 11.0312 20.7784L14.7812 17.0284C14.8509 16.9587 14.9063 16.876 14.944 16.785C14.9818 16.6939 15.0012 16.5963 15.0012 16.4978C15.0012 16.3992 14.9818 16.3016 14.944 16.2106C14.9063 16.1195 14.8509 16.0368 14.7812 15.9672L11.0312 12.2172ZM10.5006 19.1903L7.8109 16.5006L10.5006 13.8109L13.1903 16.5006L10.5006 19.1903ZM20.7812 9.96997L17.0312 6.21997C16.9616 6.15023 16.8788 6.09491 16.7878 6.05717C16.6967 6.01943 16.5992 6 16.5006 6C16.402 6 16.3044 6.01943 16.2134 6.05717C16.1223 6.09491 16.0396 6.15023 15.97 6.21997L12.22 9.96997C12.1502 10.0396 12.0949 10.1223 12.0572 10.2134C12.0194 10.3044 12 10.402 12 10.5006C12 10.5992 12.0194 10.6967 12.0572 10.7878C12.0949 10.8788 12.1502 10.9616 12.22 11.0312L15.97 14.7812C16.0396 14.8509 16.1223 14.9063 16.2134 14.944C16.3044 14.9818 16.402 15.0012 16.5006 15.0012C16.5992 15.0012 16.6967 14.9818 16.7878 14.944C16.8788 14.9063 16.9616 14.8509 17.0312 14.7812L20.7812 11.0312C20.8509 10.9616 20.9063 10.8788 20.944 10.7878C20.9818 10.6967 21.0012 10.5992 21.0012 10.5006C21.0012 10.402 20.9818 10.3044 20.944 10.2134C20.9063 10.1223 20.8509 10.0396 20.7812 9.96997ZM16.5006 13.1903L13.8109 10.5006L16.5006 7.8109L19.1903 10.5006L16.5006 13.1903ZM8.78122 9.96997L5.03122 6.21997C4.96156 6.15023 4.87884 6.09491 4.7878 6.05717C4.69675 6.01943 4.59915 6 4.50059 6C4.40203 6 4.30443 6.01943 4.21338 6.05717C4.12234 6.09491 4.03962 6.15023 3.96996 6.21997L0.219965 9.96997C0.150233 10.0396 0.0949133 10.1223 0.0571701 10.2134C0.0194269 10.3044 0 10.402 0 10.5006C0 10.5992 0.0194269 10.6967 0.0571701 10.7878C0.0949133 10.8788 0.150233 10.9616 0.219965 11.0312L3.96996 14.7812C4.03962 14.8509 4.12234 14.9063 4.21338 14.944C4.30443 14.9818 4.40203 15.0012 4.50059 15.0012C4.59915 15.0012 4.69675 14.9818 4.7878 14.944C4.87884 14.9063 4.96156 14.8509 5.03122 14.7812L8.78122 11.0312C8.85095 10.9616 8.90627 10.8788 8.94401 10.7878C8.98175 10.6967 9.00118 10.5992 9.00118 10.5006C9.00118 10.402 8.98175 10.3044 8.94401 10.2134C8.90627 10.1223 8.85095 10.0396 8.78122 9.96997ZM4.50059 13.1903L1.8109 10.5006L4.50059 7.8109L7.19028 10.5006L4.50059 13.1903Z" fill="#333333"/>
</svg>
