<svg width="17" height="17" viewBox="0 0 17 17" fill="none" xmlns="http://www.w3.org/2000/svg">
<path d="M8.125 0C5.97081 0.00227486 3.90551 0.85903 2.38227 2.38227C0.85903 3.90551 0.00227486 5.97081 0 8.125V14.6875C0 15.1019 0.16462 15.4993 0.457646 15.7924C0.750671 16.0854 1.1481 16.25 1.5625 16.25H8.125C10.2799 16.25 12.3465 15.394 13.8702 13.8702C15.394 12.3465 16.25 10.2799 16.25 8.125C16.25 5.97012 15.394 3.90349 13.8702 2.37976C12.3465 0.856024 10.2799 0 8.125 0ZM8.125 14.375H1.875V8.125C1.875 6.88887 2.24156 5.68049 2.92831 4.65269C3.61507 3.62488 4.59119 2.8238 5.73323 2.35075C6.87527 1.87771 8.13193 1.75393 9.34431 1.99509C10.5567 2.23625 11.6703 2.8315 12.5444 3.70558C13.4185 4.57966 14.0138 5.6933 14.2549 6.90569C14.4961 8.11807 14.3723 9.37473 13.8992 10.5168C13.4262 11.6588 12.6251 12.6349 11.5973 13.3217C10.5695 14.0084 9.36113 14.375 8.125 14.375Z" fill="#333333"/>
</svg>
